<svg xmlns="http://www.w3.org/2000/svg" xmlns:xlink="http://www.w3.org/1999/xlink" width="500" zoomAndPan="magnify" viewBox="0 0 375 374.999991" height="500" preserveAspectRatio="xMidYMid meet" version="1.0"><defs><clipPath id="839cd2881c"><path d="M 55 8 L 320.105469 8 L 320.105469 367 L 55 367 Z M 55 8 " clip-rule="nonzero"/></clipPath></defs><rect x="-37.5" width="450" fill="#ffffff" y="-37.499999" height="449.999989" fill-opacity="1"/><rect x="-37.5" width="450" fill="#ffffff" y="-37.499999" height="449.999989" fill-opacity="1"/><rect x="-37.5" width="450" fill="#4a3931" y="-37.499999" height="449.999989" fill-opacity="1"/><g clip-path="url(#839cd2881c)"><path fill="#000000" d="M 319.996094 185.058594 C 319.941406 185.804688 319.503906 186.570312 319.105469 187.246094 C 318.957031 187.480469 318.703125 187.589844 318.429688 187.609375 C 318.011719 188.375 317.230469 188.996094 316.375 189.578125 C 316.410156 189.597656 316.445312 189.613281 316.484375 189.632812 C 317.230469 194.480469 316.921875 199.160156 316.628906 203.882812 C 316.027344 213.355469 315.71875 222.847656 315.15625 232.324219 C 314.773438 238.773438 314.226562 245.207031 313.570312 251.636719 C 313.082031 256.558594 312.296875 261.441406 311.644531 266.34375 C 311.460938 267.652344 311.042969 268.910156 310.1875 269.929688 C 309.949219 270.203125 309.441406 270.515625 309.1875 270.421875 C 309.132812 270.40625 309.078125 270.367188 309.003906 270.351562 C 308.75 270.878906 308.367188 271.351562 307.875 271.753906 C 308.078125 272.0625 308.148438 272.445312 308.058594 272.863281 C 307.839844 273.832031 307.183594 274.449219 306.421875 274.941406 C 305.582031 275.46875 304.691406 275.925781 303.726562 276.453125 C 305.621094 280.773438 304.820312 285.019531 303.417969 289.191406 C 301.015625 296.386719 296.429688 301.816406 289.734375 305.445312 C 286.710938 307.082031 283.582031 308.433594 280.308594 309.488281 C 279.070312 309.890625 277.832031 310.363281 276.613281 310.820312 C 275.066406 311.402344 274.136719 312.421875 273.972656 314.152344 C 273.664062 317.5625 273.210938 320.96875 272.882812 324.375 C 272.28125 330.808594 271.828125 337.238281 270.515625 343.597656 C 269.863281 346.785156 268.75 349.792969 267.496094 352.761719 C 264.875 358.996094 260.144531 362.148438 253.539062 362.730469 C 249.515625 363.09375 245.515625 363.550781 241.492188 363.804688 C 236.160156 364.152344 230.808594 364.332031 225.476562 364.589844 C 218.527344 364.917969 211.574219 365.335938 204.625 365.574219 C 192.230469 365.992188 179.839844 366.8125 167.429688 366.339844 C 162.988281 366.175781 158.585938 365.683594 154.273438 364.550781 C 152.214844 364.003906 150.25 363.242188 148.613281 361.800781 C 147.503906 360.816406 146.8125 359.613281 147.066406 358.066406 C 147.121094 357.71875 147.429688 357.28125 147.722656 357.15625 C 147.777344 357.136719 147.847656 357.117188 147.921875 357.117188 C 148.046875 356.480469 148.304688 355.878906 148.628906 355.277344 C 148.175781 354.988281 147.957031 354.183594 148.175781 353.054688 C 148.429688 351.671875 148.886719 350.320312 149.175781 348.9375 C 149.59375 347.058594 150.085938 345.203125 150.304688 343.308594 C 150.652344 340.355469 149.8125 337.714844 147.757812 335.507812 C 147.410156 335.144531 147.066406 334.742188 146.628906 334.507812 C 144.699219 333.414062 142.753906 332.394531 140.550781 331.574219 C 140.441406 332.066406 140.316406 332.429688 140.296875 332.8125 C 140.078125 335.835938 140.023438 338.878906 139.625 341.867188 C 138.984375 346.75 136.675781 350.632812 132.015625 352.707031 C 128.6875 354.203125 125.101562 354.988281 121.515625 355.386719 C 116.804688 355.914062 112.070312 356.296875 107.339844 356.5 C 100.878906 356.753906 94.4375 356.390625 88.105469 354.933594 C 87.414062 354.769531 86.742188 354.585938 86.085938 354.332031 C 83.230469 353.164062 81.410156 351.214844 81.375 347.953125 C 81.375 347.550781 81.320312 347.152344 81.265625 346.605469 C 79.988281 346.605469 78.898438 347.042969 77.769531 347.351562 C 71.78125 349.011719 66.179688 347.808594 60.882812 344.929688 C 59.589844 344.21875 58.390625 343.160156 57.445312 342.03125 C 54.605469 338.625 55.316406 334.234375 59.0625 331.847656 C 60.484375 330.933594 62.101562 330.351562 63.777344 329.550781 C 63.777344 327.65625 63.832031 325.652344 63.757812 323.648438 C 63.578125 318.488281 62.9375 313.386719 62.503906 308.25 C 61.628906 297.972656 61.191406 287.679688 61.773438 277.382812 C 61.9375 274.46875 62.320312 271.554688 62.847656 268.675781 C 63.777344 263.628906 66.46875 259.492188 70.21875 256.101562 C 72.746094 253.824219 75.859375 252.695312 79.480469 252.203125 C 78.917969 251.785156 78.550781 251.472656 78.132812 251.21875 C 73.222656 248.140625 70.929688 243.492188 70.144531 237.9375 C 69.945312 236.550781 69.964844 235.113281 69.980469 233.707031 C 70.054688 229.753906 71.730469 226.511719 74.585938 223.832031 C 76.660156 221.882812 78.988281 220.296875 81.574219 219.09375 C 85.140625 217.4375 88.726562 215.832031 92.308594 214.25 C 98.132812 211.679688 103.757812 208.78125 109.070312 205.246094 C 114.839844 201.421875 118.167969 196.191406 118.625 189.25 C 119.058594 182.507812 119.371094 175.75 119.789062 168.988281 C 119.914062 166.984375 120.132812 164.960938 120.425781 162.976562 C 120.625 161.574219 121.132812 160.242188 122.007812 159.09375 C 123.171875 157.5625 124.753906 156.726562 126.613281 156.453125 C 126.757812 156.433594 126.921875 156.523438 127.101562 156.652344 C 127.722656 156.179688 128.378906 155.722656 128.324219 154.921875 C 128.230469 154.976562 128.140625 155.03125 128.03125 155.066406 C 127.285156 155.304688 126.429688 155.46875 125.683594 155.339844 C 119.714844 154.339844 113.765625 153.191406 108.085938 151.113281 C 101.316406 148.636719 95.675781 144.464844 91.035156 138.941406 C 83.847656 130.394531 79.5 120.539062 77.386719 109.625 C 75.824219 101.535156 75.496094 93.351562 76.296875 85.191406 C 78.515625 62.960938 87.597656 44.101562 104.539062 29.34375 C 112.710938 22.238281 122.117188 17.226562 132.324219 13.765625 C 140.371094 11.050781 148.628906 9.375 157.128906 8.699219 C 161.261719 8.371094 165.390625 8.1875 169.519531 8.316406 C 182.878906 8.753906 195.6875 11.449219 207.734375 17.410156 C 223.894531 25.371094 234.796875 38.109375 241.308594 54.761719 C 243.820312 61.175781 245.40625 67.824219 246.351562 74.660156 C 247.261719 81.308594 247.425781 87.960938 246.734375 94.59375 C 245.496094 106.582031 242.109375 117.933594 235.816406 128.300781 C 231.882812 134.75 226.84375 140.21875 220.675781 144.609375 C 218.691406 146.011719 216.617188 147.195312 214.085938 147.886719 C 215.6875 152.699219 217.527344 157.125 219.144531 161.953125 C 219.910156 160.769531 220.4375 159.804688 221.09375 158.964844 C 224.039062 155.160156 227.808594 152.953125 232.738281 153.027344 C 235.03125 153.0625 237.089844 153.773438 238.945312 155.085938 C 241.457031 156.871094 243.4375 159.128906 245.023438 161.753906 C 245.914062 163.230469 246.734375 164.722656 247.660156 166.347656 C 248.390625 166.417969 249.171875 166.511719 249.972656 166.546875 C 251.171875 166.601562 252.390625 166.621094 253.613281 166.636719 C 258.960938 166.730469 264.292969 166.765625 269.644531 166.929688 C 276.703125 167.148438 283.765625 167.367188 290.808594 167.730469 C 295.230469 167.96875 299.652344 168.40625 304.054688 168.898438 C 305.839844 169.097656 307.640625 169.535156 309.332031 170.136719 C 314.792969 172.050781 318.121094 176.039062 319.757812 181.488281 C 320.085938 182.597656 320.085938 183.875 319.996094 185.058594 Z M 319.996094 185.058594 " fill-opacity="1" fill-rule="nonzero"/></g><path fill="#faad60" d="M 242.457031 85.5 C 242.21875 74.148438 240.035156 63.199219 235.394531 52.847656 C 224.003906 38.453125 208.574219 27.648438 190.011719 22.765625 C 172.980469 18.175781 155.945312 18.503906 138.585938 22.765625 C 124.5 26.375 112.054688 33.261719 102.226562 44.085938 C 93.492188 53.414062 87.34375 64.035156 82.175781 75.261719 C 80.300781 83.640625 79.84375 92.1875 80.5 100.824219 C 81.027344 107.785156 82.464844 114.597656 85.175781 121.085938 C 85.558594 122.015625 85.957031 122.945312 86.394531 123.855469 C 87.378906 125.804688 89.308594 126.480469 91.199219 125.402344 C 92.144531 124.875 92.984375 124.109375 93.800781 123.363281 C 94.765625 122.46875 95.605469 121.449219 96.585938 120.59375 C 97.097656 120.136719 97.769531 119.828125 98.40625 119.609375 C 99.078125 119.371094 99.933594 120.027344 99.863281 120.738281 C 99.769531 121.523438 99.679688 122.398438 99.261719 123.015625 C 97.042969 126.40625 94.347656 129.175781 89.78125 129.59375 C 89.90625 129.996094 89.945312 130.378906 90.125 130.652344 C 94.621094 137.703125 100.335938 143.386719 108.105469 146.777344 C 111.433594 148.234375 114.964844 149.109375 118.476562 150.019531 C 121.007812 150.675781 123.574219 151.222656 126.101562 151.898438 C 126.867188 152.097656 127.632812 152.40625 128.304688 152.808594 C 128.722656 153.0625 128.867188 153.535156 128.8125 153.992188 C 131.125 153.863281 133.125 154.027344 132.34375 155.597656 C 130.707031 158.875 127.757812 162.15625 127.429688 166.089844 C 126.449219 181.503906 128.085938 199.214844 116.292969 210.367188 C 105.265625 220.480469 90.234375 221.71875 76.804688 228.003906 C 74.695312 230.519531 74.003906 233.5625 74.585938 237.097656 C 74.820312 238.480469 75.09375 239.902344 75.585938 241.199219 C 77.207031 245.515625 80.316406 248.101562 84.902344 248.867188 C 87.796875 249.359375 90.726562 249.46875 93.65625 249.433594 C 94.039062 249.433594 94.421875 249.304688 94.949219 249.214844 C 94.859375 248.429688 94.859375 247.738281 94.710938 247.0625 C 94.164062 244.660156 94.257812 242.234375 94.457031 239.832031 C 94.53125 238.957031 94.839844 238.0625 95.238281 237.261719 C 95.402344 236.953125 96.09375 236.769531 96.53125 236.804688 C 96.566406 236.804688 96.605469 236.824219 96.640625 236.824219 C 96.96875 236.09375 97.367188 235.421875 97.859375 234.839844 C 97.824219 234.710938 97.824219 234.566406 97.878906 234.472656 C 98.113281 234.035156 98.351562 233.542969 98.714844 233.269531 C 99.589844 232.597656 100.5 231.960938 101.464844 231.414062 C 104.976562 229.410156 108.632812 227.75 112.4375 226.347656 C 117.914062 224.324219 123.410156 222.320312 128.886719 220.296875 C 129.816406 219.953125 130.742188 219.570312 131.707031 219.1875 C 131.925781 216.890625 132.144531 214.6875 132.324219 212.5 C 132.816406 206.46875 133.273438 200.417969 133.78125 194.386719 C 134.273438 188.648438 134.835938 182.925781 135.347656 177.1875 C 135.601562 174.363281 135.875 171.558594 136 168.734375 C 136.074219 167.328125 135.855469 165.925781 135.765625 164.523438 C 135.710938 163.632812 135.566406 162.71875 135.601562 161.828125 C 135.621094 161.535156 136.019531 161.082031 136.292969 161.027344 C 136.601562 160.953125 137.148438 161.171875 137.3125 161.445312 C 138.675781 163.613281 139.585938 165.980469 139.476562 168.570312 C 139.277344 173.816406 138.984375 179.0625 138.695312 184.292969 C 138.496094 187.71875 138.222656 191.144531 137.96875 194.570312 C 137.511719 200.402344 137.058594 206.25 136.585938 212.082031 C 136.511719 212.992188 136.292969 213.882812 136.21875 214.777344 C 136.164062 215.5625 136.203125 216.34375 136.203125 217.273438 C 136.691406 217.238281 137.113281 217.273438 137.4375 217.144531 C 140.078125 216.144531 142.699219 215.125 145.335938 214.101562 C 145.71875 213.957031 146.066406 213.757812 146.429688 213.574219 C 148.484375 212.554688 149.742188 210.988281 149.851562 208.617188 C 149.921875 207.105469 149.996094 205.59375 150.03125 204.082031 C 150.195312 197.8125 150.394531 191.5625 150.503906 185.296875 C 150.597656 179.71875 151.558594 174.253906 152.578125 168.789062 C 153.070312 166.183594 154.125 163.777344 155.507812 161.519531 C 157.894531 157.617188 161.496094 155.324219 165.664062 153.808594 C 166.300781 153.574219 167.046875 153.628906 167.757812 153.628906 C 168.410156 153.628906 168.9375 154.136719 169.011719 154.722656 C 169.03125 154.832031 169.011719 154.921875 169.011719 154.996094 C 169.832031 155.378906 170.539062 156.085938 171.378906 155.886719 C 170.066406 158.839844 165.808594 158.839844 164.5 161.464844 C 160.894531 168.679688 160.242188 176.222656 159.914062 184.09375 C 159.257812 193.933594 161.222656 205.082031 156.636719 213.28125 C 146.484375 230.992188 122.570312 231.320312 104.558594 237.882812 C 102.265625 238.738281 99.988281 240.339844 97.476562 240.960938 C 97.550781 243.367188 97.894531 245.753906 98.640625 248.046875 C 99.988281 252.238281 102.753906 254.917969 107.230469 255.574219 C 108.613281 255.773438 110.035156 255.972656 111.433594 255.972656 C 115.785156 256.011719 120.097656 255.429688 124.355469 254.664062 C 137.566406 252.332031 150.488281 248.8125 163.152344 244.402344 C 166.101562 243.382812 168.957031 242.109375 171.777344 240.777344 C 178.183594 237.753906 182.242188 232.761719 184.078125 225.890625 C 185.097656 222.082031 185.789062 218.203125 186.390625 214.320312 C 187.335938 208.144531 188.265625 201.949219 189.210938 195.773438 C 189.683594 192.675781 190.15625 189.597656 190.703125 186.515625 C 190.832031 185.75 191.210938 185.023438 191.578125 184.332031 C 191.796875 183.910156 192.703125 184.019531 192.851562 184.476562 C 193.03125 185.039062 193.234375 185.640625 193.214844 186.207031 C 193.105469 189.542969 192.960938 192.875 192.777344 196.191406 C 192.703125 197.8125 192.46875 199.417969 192.46875 201.019531 C 192.449219 205.792969 191.6875 210.476562 190.941406 215.160156 C 190.339844 218.949219 189.59375 222.722656 188.703125 226.4375 C 187.464844 231.523438 185.132812 236.078125 181.296875 239.738281 C 179.3125 241.632812 177.074219 243.164062 174.636719 244.421875 C 171.230469 246.191406 167.683594 247.609375 164.0625 248.867188 C 153.761719 252.441406 143.28125 255.265625 132.636719 257.542969 C 127.011719 258.742188 121.335938 259.617188 115.601562 260.039062 C 112.890625 260.238281 110.179688 260.183594 107.449219 259.765625 C 102.902344 259.054688 99.296875 256.996094 96.859375 253.003906 C 96.714844 252.75 96.511719 252.53125 96.222656 252.148438 C 95.496094 252.292969 94.730469 252.421875 93.984375 252.621094 C 91.164062 253.367188 88.359375 253.789062 85.558594 253.550781 C 78.390625 256.957031 72.019531 262.207031 71.183594 270.367188 C 68.890625 289.71875 72.492188 308.414062 71.183594 327.765625 C 70.527344 333.8125 65.777344 336.875 60.539062 339.28125 C 60.664062 339.480469 60.828125 339.679688 61.011719 339.898438 C 62.15625 341.210938 63.667969 342.066406 65.25 342.722656 C 68.160156 343.960938 71.238281 344.492188 74.386719 344.546875 C 76.804688 344.582031 79.226562 344.546875 81.628906 344.546875 C 82.773438 343.214844 83.882812 341.902344 85.011719 340.628906 C 85.265625 340.320312 85.539062 339.992188 85.867188 339.808594 C 85.996094 339.734375 86.195312 339.699219 86.378906 339.699219 C 86.6875 338.824219 87.085938 337.949219 87.398438 337.039062 C 87.105469 336.894531 86.796875 336.566406 86.722656 336.292969 C 86.25 334.433594 85.796875 332.574219 86.011719 330.769531 C 86.304688 326.089844 86.597656 321.550781 86.886719 317.015625 C 87.125 313.1875 87.378906 309.363281 87.613281 305.535156 C 87.886719 300.90625 88.070312 296.261719 88.433594 291.632812 C 88.871094 285.800781 89.398438 279.988281 90.707031 274.25 C 91.925781 268.894531 95.277344 265.394531 99.84375 262.824219 C 100.609375 262.386719 101.445312 261.933594 102.371094 262.1875 C 103.226562 261.785156 104.175781 261.660156 105.25 262.132812 C 105.902344 262.460938 105.574219 264.101562 105.25 264.429688 C 101.644531 267.707031 99.679688 271.316406 99.023438 275.578125 C 97.386719 283.453125 95.75 290.667969 94.765625 298.539062 C 93.128906 311.328125 94.4375 323.464844 91.820312 336.253906 C 91.054688 341.082031 88.34375 345.109375 84.867188 348.207031 C 85.160156 349.300781 85.941406 350.101562 87.234375 350.539062 C 89.035156 351.140625 90.945312 351.523438 92.820312 351.726562 C 98.75 352.363281 104.683594 352.582031 110.632812 351.960938 C 113.636719 351.652344 116.65625 351.488281 119.679688 351.195312 C 122.789062 350.90625 125.847656 350.195312 128.8125 349.230469 C 130.925781 348.535156 132.871094 347.460938 134.671875 346.132812 C 136.074219 345.09375 136.785156 343.746094 136.710938 341.976562 C 136.621094 339.351562 136.636719 336.730469 136.476562 334.105469 C 136 326.617188 136.4375 319.183594 137.203125 311.730469 C 137.785156 306.101562 138.566406 300.507812 139.824219 294.984375 C 140.332031 292.726562 140.988281 290.484375 141.714844 288.296875 C 143.152344 284.035156 146.175781 281.429688 150.503906 280.335938 C 153.816406 279.496094 157.148438 278.660156 160.476562 277.914062 C 170.320312 275.6875 179.929688 272.71875 189.394531 269.222656 C 194.035156 267.507812 198.5625 265.539062 202.839844 263.042969 C 206.625 260.859375 210.046875 258.234375 212.957031 254.953125 C 216.726562 250.691406 218.980469 245.644531 220.253906 240.175781 C 221.054688 236.75 221.640625 233.253906 222.074219 229.753906 C 223.148438 221.101562 222.914062 212.425781 222.277344 203.753906 C 221.039062 186.972656 217.761719 170.589844 212.902344 154.484375 C 212.359375 152.664062 211.867188 150.820312 211.339844 148.925781 C 210.683594 148.925781 210.082031 148.925781 209.5 148.925781 C 208.792969 148.925781 208.101562 149 207.410156 148.925781 C 206.84375 148.855469 206.097656 148.800781 205.933594 148.089844 C 205.769531 147.324219 206.460938 147.140625 206.988281 146.851562 C 209.484375 145.519531 211.992188 144.226562 214.449219 142.859375 C 221.765625 138.796875 227.390625 132.949219 231.773438 125.878906 C 236.289062 118.589844 239.125 110.644531 240.855469 102.261719 C 241.945312 96.777344 242.566406 91.148438 242.457031 85.5 Z M 111.164062 90.691406 C 110.78125 91.605469 109.941406 91.96875 108.941406 91.914062 C 108.050781 91.859375 107.433594 91.402344 107.085938 90.601562 C 106.320312 88.871094 106.339844 87.085938 106.921875 85.300781 C 107.25 84.316406 108.25 83.605469 109.214844 83.679688 C 110.179688 83.75 110.960938 84.242188 111.289062 85.171875 C 111.582031 86.011719 111.726562 86.902344 111.964844 87.90625 C 111.707031 88.796875 111.542969 89.800781 111.164062 90.691406 Z M 111.164062 90.691406 " fill-opacity="1" fill-rule="nonzero"/><path fill="#fdbe64" d="M 102.210938 44.085938 C 93.472656 53.414062 87.324219 64.035156 82.15625 75.261719 C 82.664062 73 83.265625 70.742188 83.992188 68.5 C 90.816406 47.457031 103.902344 31.804688 123.847656 22.089844 C 135.4375 16.460938 147.757812 13.671875 160.566406 13.054688 C 165.898438 12.800781 171.230469 12.910156 176.582031 13.4375 C 185.171875 14.3125 193.433594 16.335938 201.402344 19.648438 C 216.488281 25.9375 227.589844 36.449219 234.632812 51.207031 C 234.886719 51.753906 235.140625 52.285156 235.378906 52.832031 C 223.984375 38.4375 208.554688 27.632812 189.992188 22.746094 C 172.960938 18.15625 155.929688 18.484375 138.566406 22.746094 C 124.484375 26.375 112.035156 33.261719 102.210938 44.085938 Z M 168.976562 155.050781 C 168.921875 155.46875 168.59375 155.742188 168.210938 155.941406 C 167.9375 156.070312 167.628906 156.125 167.355469 156.25 C 166.628906 156.597656 165.898438 156.960938 165.191406 157.328125 C 160.40625 159.714844 157.710938 163.722656 156.730469 168.84375 C 155.636719 174.492188 154.925781 180.210938 154.855469 185.988281 C 154.78125 191.144531 154.78125 196.28125 154.691406 201.4375 C 154.636719 204.171875 154.417969 206.886719 154.308594 209.601562 C 154.179688 212.664062 152.761719 215.03125 150.25 216.652344 C 148.738281 217.636719 147.085938 218.441406 145.410156 219.09375 C 140.914062 220.863281 136.382812 222.539062 131.835938 224.179688 C 122.734375 227.457031 113.636719 230.71875 104.519531 233.964844 C 103.101562 234.472656 101.644531 234.910156 100.1875 235.3125 C 99.625 235.457031 98.988281 235.441406 98.386719 235.441406 C 98.167969 235.441406 97.933594 235.148438 97.859375 234.875 C 97.386719 235.457031 96.988281 236.132812 96.640625 236.859375 C 96.894531 236.96875 97.222656 237.371094 97.277344 237.644531 C 97.40625 238.535156 97.40625 239.449219 97.421875 240.359375 C 97.421875 240.578125 97.441406 240.816406 97.441406 241.035156 C 99.953125 240.414062 102.226562 238.808594 104.519531 237.953125 C 122.535156 231.394531 146.445312 231.066406 156.601562 213.355469 C 161.1875 205.15625 159.222656 194.003906 159.875 184.167969 C 160.203125 176.292969 160.859375 168.75 164.460938 161.535156 C 165.773438 158.910156 170.03125 158.910156 171.339844 155.960938 C 170.503906 156.140625 169.792969 155.433594 168.976562 155.050781 Z M 127.429688 166.109375 C 127.757812 162.171875 130.707031 158.894531 132.34375 155.613281 C 133.125 154.046875 131.105469 153.882812 128.8125 154.011719 C 128.777344 154.355469 128.613281 154.703125 128.324219 154.902344 C 128.359375 155.707031 127.703125 156.160156 127.101562 156.632812 C 127.25 156.742188 127.394531 156.871094 127.539062 156.960938 C 127.304688 158.128906 126.410156 158.53125 125.757812 159.128906 C 124.683594 160.132812 123.957031 161.300781 123.808594 162.792969 C 123.683594 164.195312 123.464844 165.597656 123.425781 167.003906 C 123.335938 171.136719 123.371094 175.292969 123.246094 179.429688 C 123.136719 183.164062 123.027344 186.898438 122.679688 190.617188 C 122.007812 197.976562 118.585938 203.84375 112.5625 208.125 C 108.289062 211.167969 103.792969 213.882812 99.007812 216.070312 C 94.875 217.949219 90.726562 219.769531 86.597656 221.644531 C 83.847656 222.902344 81.171875 224.269531 78.753906 226.164062 C 77.988281 226.75 77.351562 227.386719 76.789062 228.042969 C 90.21875 221.753906 105.25 220.535156 116.277344 210.402344 C 128.085938 199.234375 126.449219 181.523438 127.429688 166.109375 Z M 85.46875 253.605469 C 83.921875 253.476562 82.375 253.132812 80.84375 252.550781 C 79.917969 254.117188 79.9375 254.132812 78.660156 254.953125 C 76.53125 256.320312 74.621094 257.960938 72.820312 259.726562 C 68.960938 263.519531 67.015625 268.089844 66.523438 273.449219 C 65.722656 282.210938 65.613281 290.996094 66.289062 299.777344 C 66.632812 304.515625 66.777344 309.253906 67.253906 313.972656 C 67.578125 317.304688 67.742188 320.621094 67.617188 323.957031 C 67.542969 325.871094 67.234375 327.765625 67.050781 329.675781 C 66.960938 330.679688 66.453125 331.355469 65.542969 331.753906 C 63.539062 332.628906 62.121094 334.214844 60.808594 335.890625 C 59.792969 337.203125 59.699219 338.167969 60.5 339.351562 C 65.742188 336.929688 70.492188 333.867188 71.144531 327.835938 C 72.457031 308.488281 68.851562 289.792969 71.144531 270.441406 C 71.929688 262.261719 78.296875 257.011719 85.46875 253.605469 Z M 91.726562 336.347656 C 94.347656 323.554688 93.039062 311.421875 94.675781 298.628906 C 95.65625 290.757812 97.296875 283.542969 98.933594 275.671875 C 99.589844 271.40625 101.554688 267.800781 105.15625 264.519531 C 105.484375 264.191406 105.8125 262.550781 105.15625 262.222656 C 104.066406 261.75 103.136719 261.878906 102.28125 262.277344 C 102.300781 262.277344 102.320312 262.277344 102.320312 262.277344 C 102.644531 262.371094 102.972656 262.734375 103.136719 263.042969 C 103.226562 263.226562 103.066406 263.664062 102.882812 263.847656 C 102.371094 264.320312 101.773438 264.71875 101.226562 265.15625 C 100.28125 265.90625 99.316406 266.632812 98.40625 267.433594 C 96.113281 269.457031 94.804688 272.027344 94.328125 274.996094 C 93.894531 277.675781 93.457031 280.371094 93.21875 283.085938 C 92.875 287.003906 92.691406 290.941406 92.4375 294.859375 C 92.109375 300.085938 91.765625 305.335938 91.472656 310.5625 C 91.164062 315.902344 90.925781 321.242188 90.617188 326.582031 C 90.507812 328.492188 90.453125 330.425781 90.109375 332.300781 C 89.851562 333.757812 89.214844 335.164062 88.6875 336.566406 C 88.488281 337.058594 87.960938 337.332031 87.433594 337.148438 C 87.398438 337.128906 87.34375 337.113281 87.304688 337.09375 C 86.996094 337.988281 86.597656 338.859375 86.285156 339.753906 C 86.414062 339.753906 86.542969 339.773438 86.632812 339.828125 C 86.851562 339.9375 87.085938 340.28125 87.085938 340.519531 C 87.085938 341.011719 87.015625 341.539062 86.8125 341.976562 C 86.46875 342.707031 85.957031 343.34375 85.613281 344.070312 C 85.265625 344.78125 84.902344 345.53125 84.757812 346.3125 C 84.628906 347.042969 84.628906 347.714844 84.792969 348.300781 C 88.25 345.203125 90.964844 341.15625 91.726562 336.347656 Z M 91.726562 336.347656 " fill-opacity="1" fill-rule="nonzero"/><path fill="#e6e6e6" d="M 236.851562 281.902344 C 229.554688 285.785156 221.3125 286.804688 213.105469 287.515625 C 213.8125 287.3125 214.542969 287.113281 215.25 286.894531 C 219.089844 285.710938 222.859375 284.234375 226.605469 282.757812 C 228.882812 281.867188 230.902344 280.519531 232.484375 278.605469 C 232.867188 278.148438 233.265625 277.640625 233.429688 277.09375 C 233.558594 276.691406 233.414062 276.089844 233.15625 275.742188 C 233.121094 275.671875 233.03125 275.617188 232.921875 275.578125 C 233.320312 275.070312 233.667969 274.542969 233.921875 273.941406 C 234.105469 273.996094 234.285156 273.996094 234.484375 273.902344 C 234.976562 273.703125 235.46875 273.175781 235.6875 272.683594 C 236.105469 271.734375 235.976562 270.714844 235.613281 269.730469 C 235.578125 269.605469 235.523438 269.476562 235.46875 269.347656 C 236.632812 268.582031 237.726562 267.707031 238.746094 266.796875 C 239.070312 267.34375 239.78125 267.671875 240.453125 267.472656 C 240.984375 267.308594 241.417969 267.035156 241.800781 266.6875 C 242.128906 267.015625 242.402344 267.417969 242.675781 267.835938 C 242.53125 268.019531 242.4375 268.21875 242.457031 268.382812 C 242.785156 271.171875 244.023438 273.394531 246.804688 274.394531 C 247.933594 274.816406 249.097656 275.214844 250.28125 275.363281 C 252.882812 275.671875 255.503906 275.890625 258.105469 276.035156 C 260.617188 276.179688 263.148438 276.164062 265.660156 276.273438 C 273.210938 276.582031 280.761719 276.945312 288.332031 277.183594 C 292.136719 277.292969 295.957031 277.164062 299.960938 277.128906 C 300.269531 278.675781 300.414062 280.300781 300.34375 281.902344 C 282.472656 283.25 264.402344 283.070312 246.351562 280.609375 C 243.074219 280.261719 239.800781 280.589844 236.851562 281.902344 Z M 236.851562 281.902344 " fill-opacity="1" fill-rule="nonzero"/><path fill="#ffffff" d="M 317.355469 187.007812 C 317.066406 186.152344 316.882812 185.257812 316.609375 184.382812 C 316.246094 183.238281 315.917969 182.070312 315.445312 180.960938 C 313.570312 176.511719 310.1875 173.871094 305.472656 173.050781 C 302.597656 172.558594 299.6875 172.160156 296.777344 171.921875 C 292.355469 171.574219 287.914062 171.375 283.492188 171.136719 C 277.140625 170.808594 270.808594 170.464844 264.457031 170.207031 C 260.636719 170.046875 256.796875 170.027344 252.957031 169.953125 C 251.773438 169.9375 250.589844 169.953125 249.246094 169.953125 C 250.117188 172.941406 250.992188 175.800781 251.773438 178.71875 C 252.519531 181.542969 253.15625 184.382812 253.867188 187.390625 C 254.429688 187.464844 255.011719 187.609375 255.578125 187.628906 C 270.5 188.121094 285.421875 188.320312 300.359375 188.320312 C 304.78125 188.320312 309.222656 188.722656 313.644531 188.957031 C 314.589844 189.011719 315.539062 189.195312 316.355469 189.578125 C 317.210938 188.996094 317.992188 188.375 318.414062 187.609375 C 317.976562 187.644531 317.484375 187.425781 317.355469 187.007812 Z M 309.769531 181.195312 C 309.1875 181.324219 308.585938 181.46875 308.003906 181.453125 C 302.5625 181.414062 297.140625 181.398438 291.699219 181.304688 C 286.875 181.214844 282.035156 181.015625 277.214844 180.867188 C 274.394531 180.777344 271.574219 180.632812 268.769531 180.613281 C 266.148438 180.59375 263.546875 180.757812 260.925781 180.742188 C 259.214844 180.722656 257.523438 180.578125 255.832031 180.414062 C 255.503906 180.375 255.230469 180.046875 254.375 179.484375 C 255.484375 179.15625 255.960938 178.898438 256.433594 178.898438 C 261.253906 178.789062 266.09375 178.609375 270.917969 178.679688 C 280.890625 178.828125 290.84375 179.082031 300.816406 179.335938 C 303.4375 179.410156 306.039062 179.609375 308.660156 179.773438 C 309.039062 179.792969 309.460938 179.882812 309.804688 180.066406 C 310.003906 180.175781 310.132812 180.503906 310.167969 180.757812 C 310.152344 180.886719 309.933594 181.160156 309.769531 181.195312 Z M 209.191406 284.035156 C 198.472656 286.621094 187.574219 288.007812 176.617188 288.679688 C 169.574219 289.117188 162.496094 288.863281 155.4375 288.789062 C 152.851562 288.753906 150.25 288.390625 147.574219 287.277344 C 148.25 286.695312 148.683594 286.09375 149.285156 285.839844 C 150.46875 285.308594 151.707031 284.855469 152.980469 284.527344 C 160.09375 282.667969 167.265625 281.027344 174.324219 278.988281 C 182.84375 276.527344 191.25 273.683594 199.292969 269.914062 C 204.898438 267.289062 210.136719 264.101562 214.542969 259.691406 C 214.816406 259.417969 215.179688 259.234375 215.632812 258.90625 C 218.582031 260.21875 221.585938 261.386719 224.421875 262.878906 C 227.609375 264.554688 230.101562 267.035156 231.554688 270.441406 C 231.957031 271.371094 232.484375 272.226562 232.992188 273.101562 C 233.210938 273.464844 233.539062 273.792969 233.921875 273.886719 C 233.683594 274.46875 233.339844 275.015625 232.921875 275.523438 C 232.667969 275.417969 232.300781 275.398438 232.085938 275.46875 C 231.410156 275.671875 230.808594 276.035156 230.171875 276.34375 C 223.386719 279.550781 216.488281 282.285156 209.191406 284.035156 Z M 246.84375 176.003906 C 245.660156 172.03125 244.167969 168.1875 242.054688 164.578125 C 240.875 162.554688 239.472656 160.753906 237.742188 159.148438 C 234.777344 156.414062 231.5 156.085938 227.953125 157.710938 C 224.222656 159.421875 221.984375 162.429688 220.855469 166.292969 C 220.621094 167.113281 220.800781 168.09375 220.984375 168.96875 C 222.019531 174.21875 223.238281 179.429688 224.1875 184.675781 C 225.222656 190.542969 225.914062 196.445312 226.40625 202.386719 C 227.023438 209.75 227.1875 217.128906 226.824219 224.488281 C 226.515625 230.847656 225.640625 237.152344 223.878906 243.292969 C 222.695312 247.390625 221.054688 251.273438 218.617188 254.808594 C 218.398438 255.136719 218.21875 255.484375 217.925781 255.972656 C 218.417969 256.230469 218.816406 256.519531 219.253906 256.683594 C 220.582031 257.160156 221.929688 257.578125 223.257812 258.035156 C 227.1875 259.382812 230.355469 261.785156 233.011719 264.9375 C 234.105469 266.25 234.867188 267.746094 235.46875 269.332031 C 236.632812 268.566406 237.726562 267.691406 238.746094 266.78125 C 238.5625 266.488281 238.488281 266.125 238.617188 265.757812 C 238.960938 264.71875 239.417969 263.699219 239.980469 262.734375 C 242.910156 257.652344 245.3125 252.332031 247.1875 246.753906 C 249.152344 240.90625 250.574219 234.910156 251.15625 228.769531 C 251.554688 224.542969 251.992188 220.316406 252.066406 216.089844 C 252.246094 202.496094 250.738281 189.085938 246.84375 176.003906 Z M 248.570312 213.976562 C 248.207031 227.3125 245.804688 240.230469 240.78125 252.621094 C 240.144531 254.207031 239.363281 255.738281 238.582031 257.269531 C 238.363281 257.6875 237.960938 258.035156 237.597656 258.359375 C 237.488281 258.453125 237.199219 258.453125 237.035156 258.378906 C 236.886719 258.308594 236.707031 258.050781 236.742188 257.90625 C 236.90625 257.230469 237.105469 256.558594 237.324219 255.882812 C 239.109375 250.308594 241.039062 244.785156 242.675781 239.175781 C 245.714844 228.714844 246.734375 218.003906 246.476562 207.125 C 246.296875 199.636719 245.714844 192.203125 243.875 184.914062 C 242.910156 181.105469 241.675781 177.371094 240.472656 173.632812 C 239.597656 170.9375 238.34375 168.40625 236.542969 166.164062 C 236.25 165.800781 235.796875 165.433594 236.324219 164.523438 C 237.761719 165.746094 238.761719 167.128906 239.546875 168.640625 C 240.472656 170.425781 241.328125 172.269531 242.054688 174.144531 C 245.53125 183.144531 247.40625 192.511719 248.152344 202.132812 C 248.445312 206.121094 248.679688 210.039062 248.570312 213.976562 Z M 300.34375 281.882812 C 300.304688 282.960938 300.179688 284.015625 299.960938 285.074219 C 298.414062 292.253906 294.410156 297.753906 288.078125 301.472656 C 284.949219 303.3125 281.5625 304.660156 278.125 305.828125 C 276.703125 306.320312 275.304688 306.917969 273.917969 307.484375 C 271.664062 308.414062 270.480469 310.21875 269.972656 312.496094 C 269.699219 313.769531 269.496094 315.082031 269.371094 316.375 C 268.898438 321.496094 268.550781 326.636719 267.988281 331.753906 C 267.53125 335.761719 266.933594 339.753906 266.1875 343.707031 C 265.566406 346.988281 264.273438 350.066406 262.65625 353 C 261.144531 355.714844 258.980469 357.5 255.867188 358.046875 C 255.066406 358.191406 254.304688 358.429688 253.503906 358.503906 C 249.699219 358.902344 245.894531 359.359375 242.074219 359.597656 C 234.324219 360.089844 226.570312 360.472656 218.816406 360.835938 C 211.976562 361.164062 205.117188 361.382812 198.273438 361.636719 C 197.671875 361.65625 197.070312 361.691406 196.453125 361.726562 C 189.503906 362.019531 182.550781 362.421875 175.597656 362.566406 C 171.578125 362.65625 167.539062 362.402344 163.515625 362.164062 C 161.113281 362.019531 158.710938 361.671875 156.328125 361.253906 C 153.433594 360.726562 150.613281 359.960938 148.792969 357.300781 C 148.667969 357.117188 148.25 357.027344 147.9375 357.046875 C 148.066406 356.40625 148.320312 355.789062 148.648438 355.207031 C 148.738281 355.261719 148.847656 355.3125 148.957031 355.3125 C 149.90625 355.421875 150.414062 354.769531 150.921875 354.128906 C 150.976562 354.058594 151.03125 353.964844 151.085938 353.875 C 153.214844 349.992188 154.617188 345.894531 154.125 341.410156 C 153.582031 336.328125 151.179688 332.484375 146.15625 330.625 C 144.390625 329.96875 142.570312 329.367188 140.84375 328.273438 C 140.84375 327.746094 140.84375 327.253906 140.84375 326.761719 C 140.988281 319.074219 141.699219 311.4375 142.84375 303.839844 C 143.425781 300.050781 144.355469 296.332031 145.15625 292.582031 C 145.320312 291.816406 145.484375 291.011719 146.335938 290.484375 C 151.125 292.488281 156.21875 292.960938 161.386719 292.980469 C 164.71875 293 168.046875 293.035156 171.378906 293.015625 C 173.90625 293 176.4375 293 178.929688 292.761719 C 185.152344 292.199219 191.359375 291.578125 197.546875 290.628906 C 202.785156 289.8125 208.007812 288.863281 213.105469 287.441406 C 221.3125 286.730469 229.554688 285.710938 236.851562 281.828125 C 239.800781 280.519531 243.074219 280.191406 246.351562 280.519531 C 264.421875 283.050781 282.472656 283.234375 300.34375 281.882812 Z M 314.390625 192.546875 C 314.226562 195.371094 314.082031 198.195312 313.84375 201.019531 C 313.371094 206.558594 312.769531 212.082031 312.351562 217.601562 C 311.679688 226.164062 311.222656 234.730469 310.476562 243.273438 C 309.878906 250.214844 308.949219 257.121094 308.238281 264.046875 C 308.058594 265.851562 308.113281 267.671875 308.183594 269.476562 C 308.203125 269.765625 308.605469 270.148438 308.984375 270.332031 C 308.730469 270.859375 308.332031 271.351562 307.859375 271.734375 C 307.640625 271.390625 307.257812 271.171875 306.800781 271.1875 C 306.109375 271.242188 305.417969 271.40625 304.726562 271.554688 C 303.253906 271.863281 301.78125 272.226562 300.304688 272.519531 C 296.8125 273.210938 293.28125 273.121094 289.75 273.046875 C 283 272.882812 276.25 272.664062 269.496094 272.445312 C 263.65625 272.265625 257.816406 272.0625 251.957031 271.84375 C 250.953125 271.808594 249.972656 271.554688 248.972656 271.445312 C 247.261719 271.261719 245.933594 270.496094 244.984375 269.019531 C 244.660156 268.511719 244.257812 268.054688 243.839844 267.636719 C 243.65625 267.453125 243.183594 267.324219 243.019531 267.433594 C 242.894531 267.527344 242.765625 267.652344 242.675781 267.800781 C 242.402344 267.378906 242.128906 266.980469 241.800781 266.652344 C 242.148438 266.34375 242.457031 265.960938 242.746094 265.539062 C 244.640625 262.789062 246.40625 259.984375 247.753906 256.902344 C 252.28125 246.554688 255.050781 235.730469 255.8125 224.453125 C 256.378906 216.089844 256.394531 207.6875 255.46875 199.324219 C 255.214844 197.011719 254.921875 194.714844 254.703125 192.402344 C 254.648438 191.855469 254.8125 191.289062 254.867188 190.761719 C 260.398438 191.070312 265.730469 191.507812 271.0625 191.65625 C 281.253906 191.945312 291.445312 192.109375 301.617188 192.292969 C 303.125 192.328125 304.636719 192.21875 306.148438 192.128906 C 308.367188 192 310.570312 191.800781 312.789062 191.671875 C 313.261719 191.636719 313.734375 191.746094 314.117188 191.78125 C 314.261719 192.203125 314.410156 192.382812 314.390625 192.546875 Z M 314.390625 192.546875 " fill-opacity="1" fill-rule="nonzero"/></svg>